<?xml version="1.0" standalone="no"?>
<!DOCTYPE svg PUBLIC "-//W3C//DTD SVG 20010904//EN"
 "http://www.w3.org/TR/2001/REC-SVG-20010904/DTD/svg10.dtd">
<svg version="1.0" xmlns="http://www.w3.org/2000/svg"
 width="1280.000000pt" height="1280.000000pt" viewBox="0 0 1280.000000 1280.000000"
 preserveAspectRatio="xMidYMid meet">

<g transform="translate(0.000000,1280.000000) scale(0.100000,-0.100000)"
fill="#000000" stroke="none">
<path d="M5600 11988 c-172 -23 -194 -34 -317 -149 -131 -123 -181 -157 -295
-197 -96 -34 -111 -36 -223 -36 -96 -1 -135 4 -196 22 -41 12 -96 22 -121 22
-52 0 -176 -44 -323 -115 -103 -49 -113 -59 -214 -219 -77 -122 -182 -226
-273 -270 -88 -43 -125 -51 -333 -67 -196 -15 -238 -29 -347 -116 -173 -137
-202 -175 -222 -290 -30 -166 -99 -296 -217 -407 -76 -72 -180 -128 -309 -166
-153 -46 -196 -81 -334 -275 l-71 -99 -1 -166 c0 -91 -4 -182 -8 -202 -10 -53
-60 -170 -100 -236 -53 -87 -104 -134 -259 -236 -78 -51 -152 -107 -164 -123
-48 -67 -133 -303 -133 -371 0 -31 12 -72 40 -131 74 -162 89 -287 49 -417
-35 -115 -67 -163 -222 -332 -47 -52 -93 -110 -102 -129 -21 -44 -43 -175 -51
-307 -7 -114 -17 -89 97 -233 94 -119 133 -230 133 -378 0 -129 -40 -237 -125
-346 -90 -115 -111 -209 -85 -391 27 -193 18 -179 248 -393 119 -110 161 -218
160 -410 0 -52 -7 -113 -16 -145 -9 -30 -24 -82 -33 -115 -27 -96 -22 -185 16
-280 88 -218 130 -269 287 -355 190 -105 292 -266 314 -494 17 -174 37 -254
87 -356 80 -162 227 -288 398 -340 53 -17 160 -75 212 -117 53 -43 106 -118
237 -336 59 -99 124 -205 145 -236 60 -88 147 -163 222 -192 59 -22 75 -24
217 -21 179 4 239 -6 341 -57 79 -39 129 -83 331 -297 173 -182 260 -230 462
-254 69 -8 116 -8 174 0 184 25 245 25 343 -4 114 -32 183 -67 344 -173 71
-47 161 -99 200 -116 70 -31 75 -32 217 -31 138 0 150 2 240 33 52 19 112 42
132 52 73 37 248 79 326 79 73 0 240 -40 317 -75 16 -8 71 -29 120 -47 80 -29
101 -33 195 -33 102 0 107 1 190 41 47 23 142 82 212 132 173 125 246 168 341
202 95 35 181 39 317 15 134 -24 240 -20 335 12 44 14 96 37 115 49 53 36 163
147 265 269 184 220 279 286 433 305 42 5 115 13 162 19 47 5 104 19 127 30
23 12 46 21 51 21 20 0 165 102 207 147 56 58 88 116 149 270 81 206 116 270
180 334 84 86 151 119 350 174 62 17 152 73 197 121 37 40 89 126 128 209 l32
70 -7 175 c-5 147 -4 185 11 239 34 132 107 237 215 312 19 13 84 49 145 79
107 53 111 57 137 110 16 30 42 91 59 135 16 44 38 96 47 115 28 61 28 149 -1
232 -51 149 -61 198 -61 318 1 219 47 306 226 428 59 40 104 86 125 125 22 43
43 193 43 307 l0 96 -44 69 c-156 244 -171 289 -163 490 5 148 23 190 137 325
70 82 74 92 66 184 -9 113 -35 285 -49 321 -6 17 -67 89 -137 160 -139 145
-167 190 -195 320 -46 213 -44 245 29 397 25 52 46 109 46 126 0 68 -118 339
-171 392 -19 19 -85 64 -147 99 -61 35 -132 83 -157 107 -57 55 -114 142 -151
231 -24 58 -28 82 -28 163 -1 52 3 130 8 172 8 70 7 81 -13 119 -37 71 -190
266 -225 288 -18 11 -97 41 -177 67 -204 66 -245 89 -359 203 -111 110 -144
169 -167 296 -31 174 -44 195 -200 320 -146 117 -163 125 -352 141 -86 8 -183
21 -216 30 -112 29 -280 135 -328 207 -16 23 -51 89 -79 147 -27 58 -59 116
-71 129 -28 30 -125 79 -252 126 -112 42 -130 42 -355 10 -167 -23 -315 -19
-437 14 -55 15 -110 54 -246 175 -76 68 -131 109 -155 116 -69 20 -361 48
-403 39 -22 -5 -90 -36 -152 -69 -138 -73 -206 -90 -369 -91 -147 -1 -189 11
-337 95 -104 59 -176 87 -219 85 -15 -1 -92 -10 -172 -21z m-1617 -3874 c50
-17 103 -68 113 -109 3 -14 5 -58 3 -98 -5 -88 -42 -170 -105 -234 -37 -36
-50 -43 -84 -43 -77 0 -100 56 -57 140 24 50 69 84 131 102 57 16 66 25 66 65
0 25 -8 43 -28 63 -122 121 -442 -61 -778 -442 -352 -399 -621 -879 -680
-1211 -49 -282 34 -511 223 -610 102 -53 178 -70 318 -70 162 0 277 22 765
148 223 58 439 112 480 120 215 46 481 58 646 30 192 -33 424 -126 569 -230
73 -52 202 -171 194 -180 -3 -3 -49 13 -101 35 -110 46 -269 86 -378 95 -144
12 -279 -25 -378 -105 l-59 -48 -17 28 c-51 87 -178 170 -321 212 -70 20 -101
23 -255 22 -161 0 -189 -3 -350 -37 -96 -19 -303 -68 -460 -107 -330 -82 -438
-100 -589 -100 -138 0 -234 20 -325 68 -298 156 -388 549 -230 1003 125 360
431 810 722 1061 295 255 522 385 767 441 47 11 155 6 198 -9z m3929 -15 c20
-5 51 -23 70 -40 l33 -32 80 27 c112 37 203 49 325 43 134 -7 209 -30 376
-117 168 -87 354 -199 354 -213 0 -5 -21 -33 -48 -61 -26 -28 -62 -69 -80 -91
l-33 -40 -37 21 c-20 12 -124 74 -230 138 -230 139 -329 190 -408 211 -65 17
-199 20 -237 6 -23 -9 -24 -12 -15 -59 26 -127 -96 -428 -253 -624 -167 -209
-382 -265 -456 -118 -29 57 -29 110 0 202 63 199 265 437 494 581 46 29 83 55
83 58 0 16 -64 31 -110 26 -200 -24 -539 -281 -835 -632 -434 -517 -676 -1003
-677 -1361 -1 -224 87 -335 255 -322 210 17 442 236 607 574 106 216 121 408
34 430 -75 19 -153 -27 -231 -135 -48 -67 -70 -119 -111 -270 -5 -17 -19 -27
-49 -36 -55 -16 -103 -47 -186 -118 -38 -33 -70 -57 -72 -55 -9 8 26 160 54
237 65 177 171 322 303 412 179 123 341 107 393 -40 38 -107 9 -262 -84 -453
-80 -166 -167 -294 -276 -407 -207 -215 -400 -310 -608 -299 -108 6 -171 34
-237 104 -113 120 -152 293 -114 515 44 261 174 542 415 899 189 279 422 529
664 711 208 155 332 227 506 292 143 54 234 63 341 36z m1960 -50 c30 -29 30
-32 26 -102 -7 -91 -41 -184 -74 -199 -13 -6 -27 -9 -30 -5 -4 3 8 41 26 83
35 85 44 159 20 174 -56 36 -136 -15 -304 -191 -312 -327 -597 -735 -859
-1227 -36 -67 -62 -122 -58 -122 13 0 191 147 324 268 74 67 198 188 278 269
122 125 177 189 299 345 11 14 25 19 49 16 l33 -3 -47 -65 c-222 -302 -693
-758 -957 -925 -40 -25 -51 -40 -83 -112 -88 -205 -133 -374 -119 -456 8 -48
40 -72 86 -62 61 13 179 148 312 355 241 375 428 581 614 674 97 49 196 43
254 -15 16 -16 31 -29 33 -29 2 0 16 20 31 45 l26 45 119 0 c65 0 119 -2 119
-5 0 -3 -44 -83 -99 -178 -54 -95 -158 -278 -231 -407 -73 -129 -154 -273
-181 -320 -59 -102 -63 -146 -18 -162 56 -21 213 123 331 303 57 86 77 109 95
109 29 0 29 -5 -2 -59 -139 -243 -383 -494 -537 -553 -77 -29 -124 -24 -164
16 -31 31 -34 39 -34 92 0 33 4 66 9 74 6 8 7 18 5 22 -3 5 -44 -27 -90 -71
-183 -171 -336 -201 -401 -78 -19 37 -22 146 -4 191 25 63 -8 43 -84 -49 -90
-109 -158 -166 -230 -190 -86 -29 -175 -1 -212 67 -14 26 -18 55 -17 138 1
115 25 237 75 373 16 43 29 82 29 86 0 5 -32 8 -71 8 -72 -1 -72 -1 -93 -36
-94 -163 -208 -314 -315 -422 -123 -122 -197 -174 -298 -208 -80 -27 -118 -26
-173 2 -145 72 -116 338 70 656 67 116 210 298 306 392 153 148 283 219 401
219 190 0 214 -193 66 -527 -4 -10 13 -13 66 -13 l72 0 47 98 c51 107 149 292
192 362 244 401 435 651 715 939 216 221 373 340 504 382 84 27 117 24 153
-12z m508 -68 c0 -20 -98 -141 -176 -218 -140 -137 -330 -250 -513 -305 -72
-22 -326 -38 -341 -22 -5 5 23 53 64 109 l72 100 130 7 c161 9 260 34 389 97
108 54 296 174 334 215 25 26 41 33 41 17z m-6430 -513 c68 -35 93 -90 86
-189 -5 -73 -37 -182 -77 -261 -23 -45 -14 -53 43 -38 72 19 124 56 261 189
157 151 245 219 346 269 67 33 83 37 151 37 66 0 82 -4 117 -27 53 -35 78 -96
70 -169 -16 -136 -150 -290 -223 -257 -87 40 11 226 129 245 22 3 39 12 42 23
8 26 -11 67 -39 85 -59 39 -160 -19 -317 -183 -169 -175 -305 -401 -350 -581
-19 -74 -20 -91 -10 -137 17 -74 53 -104 125 -104 140 0 323 159 586 510 312
415 517 590 691 590 56 0 80 -10 122 -49 l28 -26 27 31 c27 31 28 31 129 32
56 1 105 -3 108 -8 3 -4 -53 -109 -123 -232 -438 -763 -443 -774 -388 -799 18
-9 31 -7 62 9 71 37 251 238 315 351 16 30 29 41 46 41 30 0 29 -10 -9 -72
-113 -188 -379 -476 -494 -536 -74 -38 -133 -49 -174 -32 -51 21 -78 96 -61
168 5 24 5 44 0 48 -5 3 -47 -31 -94 -75 -106 -100 -163 -131 -242 -131 -152
0 -196 100 -132 297 12 40 20 75 16 79 -3 3 -50 -39 -104 -93 -218 -223 -397
-312 -550 -274 -145 36 -196 147 -158 346 19 103 67 226 125 321 22 36 40 70
40 74 0 4 -17 2 -37 -6 -21 -7 -57 -13 -80 -14 -40 0 -42 -2 -73 -57 -101
-180 -293 -420 -429 -536 -31 -26 -91 -66 -135 -88 -68 -34 -87 -39 -145 -39
-82 0 -128 27 -161 96 -20 40 -22 57 -17 137 6 108 32 189 113 348 172 337
433 608 663 686 84 29 126 29 181 1z m2490 -20 c0 -6 -24 -53 -52 -105 l-53
-93 -117 0 c-75 0 -118 4 -118 10 0 11 84 164 103 188 13 17 237 17 237 0z
m1176 -2377 c105 -48 112 -190 12 -251 -62 -38 -153 -17 -193 43 -45 70 -18
169 58 206 51 26 70 26 123 2z m-2518 -38 c-2 -11 -13 -18 -28 -18 -24 0 -25
-2 -28 -83 -2 -73 -5 -82 -22 -82 -17 0 -20 9 -22 83 -3 80 -4 82 -28 82 -15
0 -26 6 -28 18 -3 15 6 17 78 17 72 0 81 -2 78 -17z m224 0 c24 -21 23 -59 -1
-80 -19 -16 -19 -17 5 -52 30 -44 30 -51 2 -51 -15 1 -33 15 -50 40 -37 53
-58 53 -58 -1 0 -36 -2 -40 -22 -37 -22 3 -23 9 -26 87 -2 46 -1 90 2 98 8 20
124 18 148 -4z m250 -82 c21 -52 38 -96 38 -98 0 -2 -11 -3 -23 -3 -15 0 -28
9 -34 23 -16 34 -68 34 -89 1 -9 -13 -25 -24 -35 -24 -11 0 -19 1 -19 3 0 6
61 160 71 178 6 13 18 19 32 17 16 -2 29 -24 59 -97z m253 74 c36 -35 35 -111
0 -149 -22 -24 -31 -27 -82 -24 l-58 3 -3 84 c-2 46 -1 90 2 98 4 9 24 13 61
13 46 0 60 -4 80 -25z m260 5 c0 -11 -14 -16 -52 -18 -37 -2 -53 -7 -53 -17 0
-9 15 -15 47 -17 35 -2 49 -7 51 -20 3 -14 -6 -17 -45 -20 -41 -3 -48 -6 -51
-25 -3 -22 0 -23 52 -23 49 0 56 -2 56 -20 0 -18 -7 -20 -75 -20 l-75 0 0 100
0 101 73 -3 c56 -2 72 -6 72 -18z m316 -35 c12 -52 29 -75 29 -37 0 9 5 34 11
55 9 35 13 38 42 35 l32 -3 0 -95 c0 -81 -2 -95 -17 -98 -14 -3 -18 7 -20 55
-3 60 -10 57 -28 -15 -9 -36 -15 -43 -33 -40 -17 2 -24 13 -32 50 -15 68 -25
70 -25 5 0 -50 -2 -57 -20 -57 -19 0 -20 7 -20 100 l0 100 34 0 c34 0 35 -1
47 -55z m350 -45 c21 -52 39 -96 39 -97 0 -2 -11 -3 -23 -3 -16 0 -28 9 -35
25 -9 19 -19 25 -42 25 -21 0 -34 -8 -46 -25 -17 -25 -60 -36 -52 -12 68 183
70 188 96 185 21 -3 30 -17 63 -98z m261 83 c24 -21 23 -60 -2 -75 -26 -16
-25 -23 5 -62 31 -41 31 -46 1 -46 -16 0 -32 12 -50 39 -40 57 -54 59 -58 8
-2 -35 -7 -43 -25 -45 -23 -3 -23 -1 -23 97 l0 101 67 0 c48 0 72 -5 85 -17z
m148 -25 l0 -42 36 42 c28 33 43 42 67 42 l31 0 -32 -33 c-39 -41 -40 -53 -2
-103 35 -47 38 -64 8 -64 -16 0 -32 14 -52 46 -27 43 -30 45 -43 28 -7 -10
-13 -30 -13 -46 0 -21 -5 -28 -20 -28 -19 0 -20 7 -20 100 0 93 1 100 20 100
17 0 20 -7 20 -42z m-915 -83 c0 -15 -8 -21 -29 -23 -33 -4 -51 10 -42 33 9
25 71 16 71 -10z"/>
<path d="M7926 7894 c-94 -48 -162 -99 -262 -199 -111 -110 -167 -187 -222
-303 -30 -63 -37 -88 -37 -140 0 -58 3 -66 29 -89 24 -21 37 -24 71 -21 67 8
116 37 200 122 100 100 143 165 219 331 56 121 60 136 64 218 3 49 1 92 -4 97
-5 5 -30 -2 -58 -16z"/>
<path d="M8012 6719 c-47 -18 -115 -75 -138 -115 -64 -109 3 -259 135 -305 32
-11 36 -10 50 11 25 37 69 146 86 210 23 90 20 156 -10 185 -26 27 -78 33
-123 14z"/>
<path d="M9532 6678 c-139 -76 -368 -358 -493 -608 -60 -120 -81 -182 -82
-244 -1 -39 3 -52 22 -67 50 -41 112 -19 187 64 57 63 463 742 478 801 10 34
8 40 -13 57 -30 25 -49 24 -99 -3z"/>
<path d="M7732 6398 c-148 -201 -242 -399 -242 -512 0 -44 5 -60 26 -85 22
-26 33 -31 71 -31 25 0 61 8 81 17 43 20 120 96 184 180 55 72 158 235 158
250 0 5 -29 24 -64 42 -68 33 -125 92 -151 156 -9 19 -17 35 -20 35 -2 0 -22
-24 -43 -52z"/>
<path d="M3814 7391 c-77 -47 -164 -168 -164 -229 0 -70 67 -137 167 -169 67
-21 70 -18 119 102 41 101 54 196 34 245 -27 66 -95 88 -156 51z"/>
<path d="M5549 7362 c-63 -41 -183 -170 -266 -287 -222 -314 -301 -456 -310
-556 -5 -52 -3 -60 21 -84 22 -22 33 -26 59 -21 68 14 151 96 232 228 17 29
96 159 175 288 210 344 220 362 220 392 0 34 -32 68 -63 68 -13 0 -43 -13 -68
-28z"/>
<path d="M3548 7079 c-103 -127 -227 -355 -248 -455 -18 -86 -9 -142 29 -176
69 -61 162 -16 294 141 97 115 227 307 227 335 0 3 -10 6 -22 6 -63 0 -192 90
-227 158 l-18 34 -35 -43z"/>
<path d="M7513 5045 c-59 -25 -85 -92 -58 -150 30 -62 101 -83 161 -46 81 49
65 165 -29 200 -35 13 -35 13 -74 -4z m91 -57 c8 -13 7 -23 -2 -39 -11 -18
-11 -24 2 -38 20 -22 20 -31 2 -31 -8 0 -23 11 -34 25 -24 31 -30 31 -34 3 -6
-41 -33 -27 -35 17 -3 77 3 86 49 83 26 -2 45 -10 52 -20z"/>
<path d="M7540 4964 c0 -9 7 -14 17 -12 25 5 28 28 4 28 -12 0 -21 -6 -21 -16z"/>
<path d="M5225 5012 c-3 -3 -5 -14 -5 -24 0 -14 8 -18 35 -18 28 0 35 4 35 19
0 13 -9 20 -30 23 -17 3 -32 2 -35 0z"/>
<path d="M5496 4968 c-9 -35 -8 -38 15 -38 16 0 19 4 14 23 -11 35 -22 41 -29
15z"/>
<path d="M5736 5012 c-3 -3 -6 -32 -6 -64 l0 -59 32 3 c39 4 58 41 42 85 -8
25 -55 49 -68 35z"/>
<path d="M6676 4968 c-9 -35 -8 -38 15 -38 16 0 19 4 14 23 -11 35 -22 41 -29
15z"/>
<path d="M6910 5000 c-12 -22 -4 -30 32 -30 26 0 48 23 35 36 -14 14 -58 10
-67 -6z"/>
</g>
</svg>
