<?xml version="1.0" standalone="no"?>
<!DOCTYPE svg PUBLIC "-//W3C//DTD SVG 20010904//EN"
 "http://www.w3.org/TR/2001/REC-SVG-20010904/DTD/svg10.dtd">
<svg version="1.0" xmlns="http://www.w3.org/2000/svg"
 width="2560.000000pt" height="804.000000pt" viewBox="0 0 2560.000000 804.000000"
 preserveAspectRatio="xMidYMid meet">

<g transform="translate(0.000000,804.000000) scale(0.100000,-0.100000)"
fill="#000000" stroke="none">
<path d="M4970 8029 c-757 -84 -1614 -538 -2535 -1344 -207 -180 -602 -576
-781 -780 -960 -1099 -1501 -2212 -1630 -3350 -24 -209 -24 -579 -1 -740 34
-232 85 -407 173 -594 89 -189 171 -307 313 -455 285 -294 661 -471 1141 -537
121 -17 517 -17 670 0 395 43 685 102 1580 321 937 229 1334 306 1840 357 244
24 724 24 905 0 627 -84 1085 -337 1358 -750 29 -42 55 -77 58 -77 4 0 26 25
49 55 128 166 348 323 558 399 157 56 256 70 512 70 312 1 530 -26 820 -99
377 -95 699 -239 1055 -470 l30 -20 -34 45 c-56 73 -257 269 -381 372 -354
294 -849 624 -1145 763 -942 444 -1996 453 -3804 35 -141 -32 -539 -129 -886
-214 -900 -221 -1209 -286 -1590 -336 -711 -92 -1204 -21 -1580 229 -94 62
-240 208 -305 305 -226 338 -301 802 -214 1324 181 1087 861 2357 1899 3547
186 213 635 662 820 821 514 439 948 687 1315 750 148 25 270 4 339 -59 59
-55 86 -168 61 -259 -16 -55 -30 -64 -112 -71 -144 -12 -223 -51 -343 -172
-117 -118 -175 -253 -175 -410 0 -157 82 -255 213 -255 193 0 415 206 583 542
127 254 153 449 84 644 -65 187 -241 348 -436 399 -73 19 -308 27 -424 14z"/>
<path d="M25457 7885 c-815 -792 -1893 -1282 -2754 -1253 l-145 5 -153 -166
c-154 -167 -435 -491 -435 -502 0 -7 118 -25 250 -39 212 -22 518 -7 745 35
902 170 1831 825 2422 1710 66 98 208 336 200 335 -1 -1 -60 -57 -130 -125z"/>
<path d="M17211 7989 c-355 -37 -925 -264 -1436 -570 -1055 -631 -2023 -1575
-2846 -2774 -283 -412 -469 -722 -664 -1110 -283 -561 -433 -1003 -512 -1505
-26 -166 -26 -602 1 -745 36 -194 94 -363 173 -500 226 -392 605 -595 1067
-572 383 20 760 158 1154 423 837 564 1574 1659 1738 2584 26 144 26 406 0
505 -31 119 -81 212 -155 286 -116 115 -263 163 -435 141 -321 -40 -694 -237
-990 -522 -260 -250 -426 -503 -600 -912 -139 -327 -244 -697 -263 -924 l-6
-79 114 110 c284 274 581 489 843 611 l104 48 12 55 c25 118 124 392 191 531
191 395 434 639 678 680 121 20 198 -16 247 -116 23 -47 28 -73 32 -159 5
-123 -8 -224 -54 -403 -85 -335 -272 -732 -487 -1037 -297 -421 -669 -805
-977 -1008 -234 -154 -410 -217 -608 -217 -317 0 -542 154 -644 442 -57 162
-74 416 -43 638 28 196 156 682 246 932 224 625 585 1284 1117 2038 692 980
1547 1846 2357 2387 438 292 748 422 1008 423 97 0 191 -15 185 -30 -2 -5 -60
-47 -131 -94 -422 -284 -833 -641 -1072 -931 -211 -256 -423 -608 -524 -870
-75 -195 -95 -289 -95 -455 -1 -128 2 -152 22 -202 45 -112 124 -185 242 -225
82 -27 250 -24 355 5 361 103 746 442 1103 971 216 319 363 614 456 911 74
237 106 481 87 656 -8 75 -7 100 2 106 24 15 156 38 252 44 176 11 384 -26
594 -107 149 -58 462 -213 616 -306 72 -43 294 -187 495 -320 384 -253 546
-354 721 -447 l106 -56 207 219 c114 121 251 262 305 314 l98 93 -131 69
c-156 82 -300 164 -656 375 -437 258 -616 352 -846 443 -162 65 -360 119 -519
142 -134 20 -462 23 -615 6 -240 -28 -496 -88 -701 -165 l-92 -34 -54 44
c-170 139 -445 197 -772 163z m734 -641 c11 -122 -17 -317 -75 -519 -144 -500
-446 -990 -833 -1354 -287 -269 -482 -384 -650 -385 -99 0 -150 29 -193 110
-29 54 -25 209 9 320 166 550 779 1302 1397 1715 122 82 303 184 327 185 7 0
14 -28 18 -72z"/>
<path d="M23325 7913 c-263 -56 -665 -295 -1075 -639 -696 -583 -1633 -1609
-2182 -2389 -375 -533 -857 -1354 -1221 -2081 l-105 -210 -104 -32 c-165 -52
-320 -77 -340 -56 -3 3 17 53 44 112 134 286 228 565 269 802 20 113 17 331
-5 405 -68 226 -224 335 -482 335 -377 0 -863 -295 -1409 -851 -639 -652
-1067 -1353 -1236 -2023 -43 -169 -61 -302 -60 -451 0 -216 47 -368 148 -476
198 -213 486 -217 861 -13 325 178 745 540 1093 944 133 154 328 443 537 796
l102 171 127 12 c71 6 171 20 223 30 52 11 96 18 98 17 1 -2 -14 -47 -34 -102
-258 -706 -356 -1117 -341 -1434 10 -207 56 -338 154 -436 94 -94 270 -154
414 -140 147 13 335 109 546 276 109 87 351 319 462 445 56 62 62 67 57 40 -3
-16 -9 -86 -12 -155 -17 -331 107 -536 362 -596 93 -22 215 -14 311 19 214 75
461 241 727 489 l109 102 -7 -49 c-4 -26 -7 -94 -7 -149 2 -272 117 -416 346
-433 362 -26 930 394 1559 1152 187 225 598 786 622 849 5 14 -8 16 -129 16
l-135 0 -68 -97 c-223 -323 -473 -633 -679 -839 -154 -154 -241 -224 -356
-284 -99 -52 -149 -60 -179 -30 -20 20 -22 30 -17 80 9 108 12 113 459 865
435 733 1268 2145 1268 2150 0 3 -180 5 -399 5 l-399 0 -65 -101 -65 -101 -30
45 c-78 112 -197 203 -307 232 -51 14 -86 17 -158 12 -353 -24 -719 -238
-1162 -682 -371 -370 -666 -753 -1245 -1610 -324 -481 -482 -680 -650 -823
-104 -87 -185 -126 -249 -120 -124 12 -174 125 -152 341 27 254 158 658 368
1132 121 272 134 296 190 330 161 98 530 367 763 556 323 261 563 483 1055
974 528 527 868 912 1270 1439 l99 129 -55 -7 c-30 -3 -95 -9 -146 -13 l-92
-6 -103 -131 c-742 -945 -1934 -2102 -2551 -2475 l-38 -24 49 99 c364 725 966
1687 1515 2419 736 981 1739 1955 2014 1955 78 0 96 -50 64 -184 -29 -121 -90
-272 -186 -462 l-81 -161 70 17 c39 10 108 27 153 40 l81 23 43 96 c186 422
229 725 119 838 -34 35 -99 68 -162 83 -62 14 -192 11 -273 -7z m-5102 -4127
c46 -19 113 -98 134 -159 14 -41 18 -80 17 -182 -1 -146 -24 -252 -91 -425
-39 -103 -176 -377 -213 -430 -22 -30 -26 -32 -67 -26 -24 3 -77 22 -116 42
-242 121 -381 324 -380 554 1 140 59 269 182 402 165 179 403 279 534 224z
m4667 -62 c32 -20 60 -63 60 -95 0 -24 -82 -167 -408 -714 -408 -683 -627
-1028 -849 -1338 -169 -235 -234 -317 -348 -433 -151 -154 -261 -209 -364
-184 -112 27 -143 115 -105 298 23 114 74 245 179 457 270 550 637 1083 1070
1554 237 258 414 401 565 457 52 19 166 18 200 -2z m-5609 -906 c108 -166 319
-350 528 -459 46 -24 86 -49 88 -56 5 -14 -150 -276 -255 -428 -351 -511 -722
-859 -963 -905 -86 -16 -154 4 -217 63 -192 183 0 787 466 1467 164 239 282
400 293 400 3 0 31 -37 60 -82z"/>
<path d="M5240 6090 c-121 -26 -197 -53 -345 -125 -659 -322 -1483 -1210
-1920 -2070 -296 -582 -377 -1121 -217 -1445 68 -139 212 -254 368 -295 247
-64 610 83 1028 417 303 242 638 588 837 863 93 128 284 415 439 660 73 116
134 211 135 213 1 2 72 18 158 38 85 19 175 40 201 48 25 8 46 12 46 9 0 -3
-35 -71 -79 -152 -195 -362 -280 -546 -349 -761 -202 -625 -92 -1078 312
-1278 267 -132 566 -104 946 89 290 147 597 380 983 747 66 62 121 111 123
109 2 -2 -5 -30 -16 -63 -75 -216 -103 -502 -65 -648 34 -128 112 -222 222
-266 82 -32 259 -39 370 -15 238 53 496 210 754 462 l116 113 -5 -122 c-5
-136 5 -205 42 -283 79 -169 284 -231 526 -159 401 118 1001 666 1663 1517
146 187 287 379 287 391 0 3 -60 6 -133 6 l-134 0 -121 -148 c-311 -382 -637
-732 -812 -873 -153 -123 -292 -177 -339 -130 -36 36 -22 141 37 256 13 28
393 662 842 1411 450 748 823 1370 829 1382 l12 22 -403 0 -403 0 -44 -70
c-23 -38 -44 -70 -46 -70 -2 0 -28 25 -57 57 -101 107 -236 173 -357 173 -383
-1 -899 -336 -1450 -945 -250 -276 -386 -442 -706 -865 -397 -524 -689 -862
-962 -1114 -442 -406 -753 -543 -971 -426 -73 39 -115 83 -151 160 -24 52 -26
64 -26 205 0 139 3 159 33 268 48 175 122 356 242 592 120 237 244 453 362
630 310 464 780 928 1087 1074 68 32 85 36 156 36 67 0 87 -5 124 -25 73 -41
98 -122 71 -221 -10 -36 -10 -36 -78 -42 -138 -13 -256 -75 -342 -178 -136
-163 -198 -344 -156 -454 22 -56 91 -118 151 -135 188 -53 444 181 607 553
131 301 111 554 -58 723 -118 119 -269 169 -479 161 -166 -6 -295 -42 -470
-129 -237 -119 -454 -286 -895 -693 -234 -215 -369 -331 -469 -403 -104 -75
-263 -167 -354 -205 -83 -35 -194 -64 -204 -53 -3 2 17 58 45 123 215 507 255
920 113 1145 -118 186 -374 268 -651 208z m308 -369 c174 -90 195 -375 57
-746 -51 -136 -143 -335 -168 -362 -26 -29 -73 -30 -163 -2 -167 51 -334 169
-397 279 -33 57 -57 149 -57 215 0 232 225 511 494 611 79 30 181 32 234 5z
m5322 -29 c14 -10 33 -34 43 -54 l18 -36 -239 -409 c-578 -986 -855 -1430
-1096 -1750 -211 -281 -382 -455 -506 -516 -81 -40 -172 -45 -216 -11 -57 42
-69 69 -68 152 2 124 60 294 189 552 207 414 461 786 979 1435 281 352 494
558 643 622 104 44 204 50 253 15z m-6275 -900 c58 -89 152 -185 237 -241 79
-53 259 -141 361 -176 43 -16 80 -32 83 -37 7 -11 -78 -155 -211 -358 -214
-325 -382 -536 -581 -731 -268 -262 -479 -368 -620 -314 -100 38 -152 120
-161 254 -15 224 130 621 373 1023 122 202 453 674 463 661 4 -4 29 -41 56
-81z"/>
<path d="M12355 5669 c-115 -188 -211 -345 -213 -350 -2 -5 157 -9 376 -9
l380 0 203 328 c111 180 209 337 217 350 l14 22 -383 0 -384 -1 -210 -340z"/>
</g>
</svg>
