<?xml version="1.0" standalone="no"?>
<!DOCTYPE svg PUBLIC "-//W3C//DTD SVG 20010904//EN"
 "http://www.w3.org/TR/2001/REC-SVG-20010904/DTD/svg10.dtd">
<svg version="1.0" xmlns="http://www.w3.org/2000/svg"
 width="1024.000000pt" height="1024.000000pt" viewBox="0 0 1024.000000 1024.000000"
 preserveAspectRatio="xMidYMid meet">

<g transform="translate(0.000000,1024.000000) scale(0.100000,-0.100000)"
fill="#000000" stroke="none">
<path d="M4745 10224 c-794 -66 -1508 -286 -2174 -668 -553 -318 -1028 -726
-1441 -1236 -578 -715 -949 -1577 -1079 -2510 -69 -496 -66 -953 10 -1450 171
-1117 679 -2109 1482 -2895 92 -91 194 -186 226 -212 313 -254 352 -283 571
-427 333 -219 754 -425 1120 -546 1060 -353 2068 -370 3150 -54 765 223 1517
673 2105 1259 100 99 199 200 220 225 693 788 1111 1695 1254 2721 91 653 56
1280 -109 1939 -94 372 -184 622 -349 965 -259 537 -613 1031 -1027 1435 -164
160 -185 179 -329 295 -60 49 -112 92 -115 95 -15 17 -174 130 -305 217 -465
309 -921 519 -1445 666 -579 163 -1208 227 -1765 181z m758 -893 c109 -24 147
-61 147 -145 0 -33 -6 -52 -25 -74 -34 -40 -32 -72 12 -177 24 -58 38 -111 41
-150 4 -55 1 -64 -22 -92 l-27 -32 2 -198 c4 -452 41 -628 304 -1453 57 -179
119 -376 139 -439 85 -268 116 -477 82 -543 -8 -15 -10 -30 -5 -35 30 -30 75
-295 100 -583 16 -179 18 -683 3 -731 -9 -28 -9 -39 2 -54 22 -29 17 -112 -21
-355 -121 -774 -160 -1169 -152 -1527 7 -304 25 -411 117 -703 88 -277 101
-520 38 -710 -16 -49 -33 -76 -72 -115 -62 -61 -119 -83 -323 -119 -398 -72
-817 -82 -1223 -30 -468 61 -550 107 -605 344 -35 154 -9 415 64 642 165 506
159 925 -28 2155 -28 182 -51 343 -51 358 0 14 6 38 14 53 10 20 12 40 5 77
-11 70 -11 461 1 640 21 301 61 569 96 638 12 21 12 32 3 49 -8 15 -10 58 -6
137 8 157 27 230 227 851 104 321 146 463 205 690 71 272 84 364 97 671 l12
276 -30 38 c-43 57 -40 121 14 251 23 55 42 107 42 116 0 8 -13 35 -30 59 -35
52 -39 100 -10 147 27 45 86 69 195 81 110 12 602 6 668 -8z"/>
<path d="M5579 5845 c-54 -20 -108 -57 -166 -114 -195 -192 -344 -503 -346
-718 0 -69 4 -90 27 -137 36 -73 75 -101 141 -100 36 0 61 8 90 26 94 59 192
202 229 330 18 63 21 170 6 198 -39 72 -142 27 -199 -87 -24 -49 -51 -145 -51
-184 0 -26 2 -26 55 26 32 31 55 61 55 73 0 36 47 129 73 146 85 56 82 -99 -5
-266 -93 -180 -206 -230 -259 -115 -23 51 -24 91 -4 195 20 103 42 166 97 279
90 181 200 329 287 385 40 25 101 38 101 22 0 -4 -18 -26 -39 -49 -82 -89
-124 -224 -87 -280 23 -35 53 -31 92 10 45 48 76 135 77 218 1 66 2 67 28 67
20 0 42 -16 88 -66 34 -36 64 -64 65 -63 2 2 8 19 15 38 11 33 9 36 -21 62
-48 41 -116 71 -154 67 -19 -1 -40 4 -51 14 -46 40 -82 46 -144 23z m159 -152
c-6 -74 -41 -166 -76 -196 -11 -10 -31 -17 -44 -15 -57 8 -20 159 60 241 55
56 66 51 60 -30z"/>
<path d="M6067 5828 c-47 -36 -130 -293 -200 -623 -8 -37 -18 -61 -27 -63 -13
-2 -15 14 -15 94 0 107 -8 123 -60 110 -60 -15 -131 -124 -185 -283 -53 -160
-38 -277 34 -259 62 15 126 105 176 243 15 42 28 63 42 66 17 5 19 2 14 -16
-4 -12 -10 -67 -13 -122 -5 -85 -3 -102 11 -114 21 -18 43 -8 64 30 36 64 40
67 48 31 10 -47 32 -52 64 -14 32 39 36 39 44 7 8 -31 19 -32 45 -4 22 24 91
181 91 207 0 10 -11 -10 -25 -42 -13 -33 -31 -66 -40 -75 -13 -14 -15 -13 -15
4 0 11 16 93 36 183 20 90 34 165 31 168 -3 3 -14 1 -25 -5 -15 -8 -23 -7 -32
4 -31 38 -77 -36 -145 -235 -51 -150 -71 -188 -88 -171 -8 8 -8 39 2 113 11
92 17 110 51 163 71 109 158 335 129 335 -5 0 -9 -8 -9 -18 0 -28 -44 -150
-78 -219 -31 -61 -48 -80 -59 -69 -9 8 62 316 97 426 35 106 55 139 64 99 13
-59 15 -61 12 -11 -4 61 -14 78 -39 60z m-250 -602 c-3 -38 -11 -74 -17 -80
-16 -16 -41 5 -56 48 -11 31 -11 43 0 71 17 40 45 58 65 42 10 -9 12 -28 8
-81z m323 76 c0 -29 -67 -268 -85 -302 -23 -44 -35 -37 -35 19 0 54 28 155 67
244 25 55 53 76 53 39z m-410 -131 c0 -5 14 -22 30 -38 17 -15 30 -34 30 -41
0 -16 -46 -108 -73 -144 -23 -31 -61 -37 -71 -12 -15 39 8 153 46 227 9 18 38
24 38 8z"/>
<path d="M4257 5801 c-94 -83 -175 -321 -192 -566 -10 -147 28 -310 78 -337
15 -8 46 -7 118 2 155 21 230 1 302 -79 l37 -41 26 25 c53 49 163 41 287 -22
50 -25 51 -25 32 -3 -34 38 -129 107 -191 139 -122 62 -240 67 -426 20 -105
-26 -125 -28 -151 -18 -62 26 -84 141 -67 344 22 253 113 515 180 515 29 0 34
-19 11 -44 -26 -28 -42 -101 -20 -94 17 6 48 82 48 119 1 15 -7 37 -17 49
l-18 23 -37 -32z"/>
<path d="M6156 5753 c-8 -25 -71 -83 -90 -83 -12 0 -26 -41 -26 -76 0 -24 28
-15 64 20 33 34 72 124 63 149 -2 7 -7 3 -11 -10z"/>
<path d="M4813 5651 c-47 -30 -103 -105 -195 -268 -123 -216 -185 -276 -216
-208 -17 36 -15 59 9 145 37 133 127 280 171 280 31 0 30 -32 -2 -61 -23 -21
-30 -37 -30 -64 0 -85 70 2 73 91 5 122 -129 80 -202 -64 -23 -45 -68 -102
-81 -102 -5 0 -6 37 -3 83 5 68 3 85 -10 96 -39 31 -83 -22 -130 -156 -25 -71
-32 -108 -35 -193 -3 -80 0 -110 11 -124 8 -11 19 -16 26 -12 18 11 62 103 91
191 19 56 33 81 45 84 14 2 17 -2 11 -20 -34 -123 -28 -226 14 -264 29 -26 73
-6 137 64 l53 56 0 -45 c0 -96 61 -120 129 -50 l38 39 16 -39 c13 -33 20 -40
42 -40 30 0 77 30 115 74 56 64 150 211 138 215 -6 2 -17 -4 -23 -14 -60 -102
-148 -184 -161 -151 -5 14 41 121 145 336 l60 125 -45 3 c-25 2 -51 -2 -58 -7
-9 -8 -18 -6 -32 4 -26 20 -63 18 -101 -4z m100 -56 c-3 -32 -157 -347 -187
-382 -29 -35 -60 -43 -69 -18 -8 20 18 116 48 176 36 71 112 189 143 222 31
32 68 33 65 2z m-588 -66 c10 -31 -5 -120 -21 -126 -42 -16 -58 59 -24 115 23
37 36 41 45 11z m-45 -150 l24 -20 -24 -71 c-27 -78 -51 -115 -68 -104 -7 4
-12 20 -12 36 0 49 32 180 44 180 6 -1 22 -10 36 -21z"/>
<path d="M5115 5610 l-25 -50 48 0 c47 0 48 1 70 45 12 25 22 48 22 50 0 3
-20 5 -45 5 -44 0 -45 -1 -70 -50z"/>
<path d="M6200 4974 c0 -14 4 -23 9 -19 11 6 10 45 -1 45 -4 0 -8 -12 -8 -26z"/>
</g>
</svg>
